# xmcd
#
# Track frame offsets: 
#        150
#        13715
#        33867
#        55031
#        72196
#        93285
#        108508
#        123776
#        138524
#        152867
#        166865
#        189005
#        202218
#        221363
#
# Disc length: 3152 seconds
#
# Revision: 1
# Processed by: cddbd v1.5.2PL0 Copyright (c) Steve Scherf et al.
# Submitted via: ExactAudioCopyFreeDBPlugin 1.0
#
DISCID=b50c4e0e
DTITLE=Harrison Kennedy - Shame the Devil
DYEAR=2011
DGENRE=Blues
TTITLE0=Cats in the Window
TTITLE1=Trouble
TTITLE2=Hound and Rabbit
TTITLE3=Shame the Devil
TTITLE4=That's Just Stupid
TTITLE5=How Long
TTITLE6=Musta Bin the Devil
TTITLE7=Hard Time Blues
TTITLE8=Snakes Lie
TTITLE9=Music to My Ears
TTITLE10=Fo' Day Train
TTITLE11=Stay
TTITLE12=Shake Em Free
TTITLE13=You Don't Know Me
EXTD=
EXTT0=
EXTT1=
EXTT2=
EXTT3=
EXTT4=
EXTT5=
EXTT6=
EXTT7=
EXTT8=
EXTT9=
EXTT10=
EXTT11=
EXTT12=
EXTT13=
PLAYORDER=
